<svg viewBox="0 0 48 48" height="24px" width="24px"><path d="M32.434 33.86a.75.75 0 00-.902-.585 13.15 13.15 0 01-2.841.338c-3.55 0-6.376-2.174-7.598-5.34h7.111a.75.75 0 00.733-.586l.398-1.773a.75.75 0 00-.732-.914h-8.396c-.076-.895-.089-1.768.008-2.64h9.17a.75.75 0 00.733-.59l.407-1.86a.75.75 0 00-.733-.91h-8.65c1.291-2.812 3.922-4.69 7.358-4.69.906 0 1.786.141 2.367.26a.75.75 0 00.876-.54l.75-2.772a.75.75 0 00-.583-.933A18.228 18.228 0 0028.614 10c-6.079 0-10.984 3.766-12.795 9h-2.068a.75.75 0 00-.751.75v1.86c0 .414.336.75.75.75h1.35a18.54 18.54 0 00-.012 2.64h-1.337a.75.75 0 00-.751.75v1.773c0 .414.336.75.75.75h1.884C17.2 33.918 22.086 38 28.614 38c1.645 0 3.038-.284 3.822-.487a.75.75 0 00.55-.872l-.552-2.78z" fill="currentColor"></path></svg>
